<svg width="40" height="32" viewBox="0 0 40 32" fill="none" xmlns="http://www.w3.org/2000/svg">
<path d="M12.8 0H19.2V6.4H12.8V0ZM6.4 0H12.8V6.4H6.4V0ZM0 0H6.4V6.4H0V0ZM0 6.4H6.4V12.8H0V6.4ZM0 12.8H6.4V19.2H0V12.8ZM0 19.2H6.4V25.6H0V19.2ZM0 25.6H6.4V32H0V25.6ZM6.4 25.6H12.8V32H6.4V25.6ZM12.8 19.2H19.2V25.6H12.8V19.2ZM12.8 12.8H19.2V19.2H12.8V12.8Z" fill="white"/>
<path fill-rule="evenodd" clip-rule="evenodd" d="M30.8313 11.998L23.07 19.7592L27.3066 23.9958L39.3045 11.998L27.3066 5.9275e-05L23.07 4.23668L30.8313 11.998Z" fill="#03FF99"/>
</svg>
